<svg xmlns="http://www.w3.org/2000/svg" xmlns:svg="http://www.w3.org/2000/svg" id="Calque_1" x="0" y="0" version="1.1" viewBox="0 0 198.4 198.4" xml:space="preserve" style="enable-background:new 0 0 198.4 198.4"><metadata id="metadata17"/><style id="style2" type="text/css">.st1{fill:#138a51}.st2{fill:#fff}</style><path style="fill:none;fill-opacity:1;stroke:none;stroke-width:4.1;stroke-miterlimit:4;stroke-dasharray:none;stroke-opacity:1" id="path841" d="m 99.299065,7.1999993 c -2.8,0 -5.89961,0.19922 -6.09961,0.19922 -2.7,0.2 -5.4,0.5 -8,1.000002 C 65.699454,12.099221 49.800624,21.600783 37.400624,37.000783 c -10.1,12.6 -15.70039,27.098828 -16.90039,43.298828 -0.6,7.800001 -7.8e-4,15.600782 1.69922,23.300779 1.3,5.7 3.20117,11.2 5.70117,16.5 0.2,0.4 0.39922,0.89883 0.69922,1.29883 4.2,8.3 9.60039,15.70156 16.40039,22.10156 3.6,3.4 7.4,6.4 11.5,9 12.7,8 26.500003,12.29844 41.500002,12.39844 0.900001,0 1.199219,0.20117 1.199219,1.20117 V 190.2 v 1 c 0.3,-0.1 0.39961,-0.19922 0.59961,-0.19922 11.699995,-5.5 22.300385,-11.90078 32.400385,-19.80078 0,0 6.2,-4.9 9,-7.5 2.4,-2.2 4.8,-4.6 7,-7 1,-1 1.9004,-2.09961 2.9004,-3.09961 1.5,-1.6 2.79921,-3.39961 4.19921,-5.09961 1.6,-1.9 3.1,-4.00156 4.5,-6.10156 3.2,-4.6 6.1,-9.4 8.5,-14.5 1.2,-2.6 2.4004,-5.19883 3.40039,-7.79883 l 0.0996,-0.0996 c 2.8,-7.2 4.6,-14.70039 5.5,-22.400387 0.1,-0.9 0.5,-3.59961 0.5,-3.59961 0.1,-1.6 0.20079,-3.001562 0.30079,-4.601562 0.3,-5.8 -0.0996,-11.598828 -1.09961,-17.298828 -2.8,-15.2 -9.5,-28.500391 -20,-39.900391 -4.4,-4.8 -9.40039,-9 -14.90039,-12.5 -10.2,-6.6 -21.4,-10.5999987 -33.5,-12.0000027 -1.5,-0.2 -7.70079,-0.6 -9.300785,-0.5 z"/><path style="fill:#ccc;fill-opacity:1;stroke:none;stroke-width:4.1;stroke-miterlimit:4;stroke-dasharray:none;stroke-opacity:1;opacity:.3" id="path6" d="m 148.2,156.7 c 1,-1 1.9,-2.1 2.9,-3.1 1.5,-1.6 2.8,-3.4 4.2,-5.1 1.6,-1.9 3.1,-4 4.5,-6.1 3.2,-4.6 6.1,-9.4 8.5,-14.5 1.2,-2.6 2.4,-5.2 3.4,-7.8 l 0.1,-0.1 c 2.8,-7.2 4.6,-14.7 5.5,-22.4 0.1,-0.9 0.5,-3.6 0.5,-3.6 l -45,-45 H 118.4 L 104.5,73.1 80.4,49 H 66 L 93.1,96.1 V 132 l 39.1,39.2 c 0,0 6.2,-4.9 9,-7.5 2.4,-2.2 4.8,-4.6 7,-7 z" class="st1"/><path id="path836" d="m 99.299065,7.1999993 c -2.8,0 -5.89961,0.19922 -6.09961,0.19922 -2.7,0.2 -5.4,0.5 -8,1.000002 C 65.699454,12.099221 49.800624,21.600783 37.400624,37.000783 c -10.1,12.6 -15.70039,27.098828 -16.90039,43.298828 -0.6,7.800001 -7.8e-4,15.600782 1.69922,23.300779 1.3,5.7 3.20117,11.2 5.70117,16.5 0.2,0.4 0.39922,0.89883 0.69922,1.29883 4.2,8.3 9.60039,15.70156 16.40039,22.10156 3.6,3.4 7.4,6.4 11.5,9 12.7,8 26.500003,12.29844 41.500002,12.39844 0.900001,0 1.199219,0.20117 1.199219,1.20117 V 190.2 v 1 c 0.3,-0.1 0.39961,-0.19922 0.59961,-0.19922 11.699995,-5.5 22.300385,-11.90078 32.400385,-19.80078 0,0 6.2,-4.9 9,-7.5 2.4,-2.2 4.8,-4.6 7,-7 1,-1 1.9004,-2.09961 2.9004,-3.09961 1.5,-1.6 2.79921,-3.39961 4.19921,-5.09961 1.6,-1.9 3.1,-4.00156 4.5,-6.10156 3.2,-4.6 6.1,-9.4 8.5,-14.5 1.2,-2.6 2.4004,-5.19883 3.40039,-7.79883 l 0.0996,-0.0996 c 2.8,-7.2 4.6,-14.70039 5.5,-22.400387 0.1,-0.9 0.5,-3.59961 0.5,-3.59961 0.1,-1.6 0.20079,-3.001562 0.30079,-4.601562 0.3,-5.8 -0.0996,-11.598828 -1.09961,-17.298828 -2.8,-15.2 -9.5,-28.500391 -20,-39.900391 -4.4,-4.8 -9.40039,-9 -14.90039,-12.5 -10.2,-6.6 -21.4,-10.5999987 -33.5,-12.0000027 -1.5,-0.2 -7.70079,-0.6 -9.300785,-0.5 z" style="fill:none;fill-opacity:1;stroke:#fff;stroke-width:9.5;stroke-miterlimit:4;stroke-dasharray:none;stroke-opacity:1"/><path id="path10" d="M93.1,96.2L66,49h14.4l19,33.1l19-33.1h14.4l-27.2,47.1V132H93.1V96.2z" class="st2" style="stroke:#fff;stroke-opacity:1;stroke-width:4.9;stroke-miterlimit:4;stroke-dasharray:none;fill:#fff"/></svg>